# File created by Blade
# Date/Time:  Tue Jan 27 18:09:18 2015
#---------------------------------------------------------
:version 1.10
:name HOM
:units
  mass 1.0
  length 1.000000
  angle deg
:documentation
     Acclaim Skeleton File
:root
   axis xyz
   order TX TY TZ RX RY RZ
   position 0.000000 0.000000 0.000000
   orientation 0 0 0
:bonedata
   begin
      id 1
      name Spine_dum
      direction 0.000000 1.000000 0.000000
      length 5.195262
      axis 0.0 0.0 0.0 xyz
   end
   begin
      id 2
      name LeftUpLeg_dum
      direction 1.000000 0.000000 0.000000
      length 3.351363
      axis 0.0 0.0 0.0 xyz
   end
   begin
      id 3
      name RightUpLeg_dum
      direction -1.000000 0.000000 0.000000
      length 3.351363
      axis 0.0 0.0 0.0 xyz
   end
   begin
      id 4
      name Spine
      direction 0.000000 1.000000 0.000000
      length 0.000000
      axis 0.0 0.0 0.0 xyz
      dof rx ry rz
   end
   begin
      id 5
      name Spine_dum1
      direction 0.000000 1.000000 0.000000
      length 15.653875
      axis 0.0 0.0 0.0 xyz
   end
   begin
      id 6
      name Spine_dum2
      direction 0.000000 1.000000 0.000000
      length 10.329768
      axis 0.0 0.0 0.0 xyz
   end
   begin
      id 7
      name Spine_dum3
      direction 0.000000 1.000000 0.000000
      length 10.329768
      axis 0.0 0.0 0.0 xyz
   end
   begin
      id 8
      name Head
      direction 0.000000 1.000000 0.000000
      length 4.527550
      axis 0.0 0.0 0.0 xyz
      dof rx ry rz
   end
   begin
      id 9
      name LeftShoulder
      direction 1.000000 0.000000 0.000000
      length 6.996006
      axis 0.0 0.0 -90.0 xyz
      dof rx ry rz
   end
   begin
      id 10
      name LeftArm
      direction 1.000000 0.000000 0.000000
      length 10.209302
      axis 0.0 0.0 -90.0 xyz
      dof rx ry rz
   end
   begin
      id 11
      name LeftForeArm
      direction 1.000000 0.000000 0.000000
      length 8.563163
      axis 0.0 0.0 -90.0 xyz
      dof ry rz rx
   end
   begin
      id 12
      name LeftHand
      direction 0.000000 0.000000 0.000000
      length 0.000000
      axis 0.0 0.0 -90.0 xyz
      dof rx ry rz
   end
   begin
      id 13
      name LeftHand_dum1
      direction 0.000000 0.000000 0.000000
      length 0.000000
      axis 0.0 0.0 -90.0 xyz
   end
   begin
      id 14
      name LeftHand_dum2
      direction 1.000000 0.000000 0.000000
      length 3.937000
      axis 0.0 0.0 -90.0 xyz
   end
   begin
      id 15
      name LeftHandThumb1
      direction 0.000000 0.000000 1.000000
      length 3.937000
      axis 0.0 0.0 -90.0 xyz
      dof rx rz ry
   end
   begin
      id 16
      name RightShoulder
      direction -1.000000 0.000000 0.000000
      length 6.996006
      axis 0.0 0.0 90.0 xyz
      dof rx ry rz
   end
   begin
      id 17
      name RightArm
      direction -1.000000 0.000000 0.000000
      length 10.209302
      axis 0.0 0.0 90.0 xyz
      dof rx ry rz
   end
   begin
      id 18
      name RightForeArm
      direction -1.000000 0.000000 0.000000
      length 8.563163
      axis 0.0 0.0 90.0 xyz
      dof ry rz rx
   end
   begin
      id 19
      name RightHand
      direction 0.000000 0.000000 0.000000
      length 0.000000
      axis 0.0 0.0 90.0 xyz
      dof rx ry rz
   end
   begin
      id 20
      name RightHand_dum1
      direction 0.000000 0.000000 0.000000
      length 0.000000
      axis 0.0 0.0 90.0 xyz
   end
   begin
      id 21
      name RightHand_dum2
      direction -1.000000 0.000000 0.000000
      length 3.937000
      axis 0.0 0.0 90.0 xyz
   end
   begin
      id 22
      name RightHandThumb1
      direction 0.000000 0.000000 1.000000
      length 3.937000
      axis 0.0 0.0 90.0 xyz
      dof rx rz ry
   end
   begin
      id 23
      name LeftUpLeg
      direction 0.000000 -1.000000 0.000000
      length 16.346831
      axis 0.0 0.0 0.0 xyz
      dof rx ry rz
   end
   begin
      id 24
      name LeftLeg
      direction 0.000000 -1.000000 0.000000
      length 13.959795
      axis 0.0 0.0 0.0 xyz
      dof rx ry rz
   end
   begin
      id 25
      name LeftFoot
      direction 0.000000 -0.258819 0.965926
      length 5.165550
      axis 15.0 0.0 0.0 xyz
      dof rx ry rz
   end
   begin
      id 26
      name LeftToeBase
      direction 0.000000 0.000000 1.000000
      length 2.952750
      axis 0.0 0.0 0.0 xyz
      dof rx ry rz
   end
   begin
      id 27
      name RightUpLeg
      direction 0.000000 -1.000000 0.000000
      length 16.346831
      axis 0.0 0.0 0.0 xyz
      dof rx ry rz
   end
   begin
      id 28
      name RightLeg
      direction 0.000000 -1.000000 0.000000
      length 13.959795
      axis 0.0 0.0 0.0 xyz
      dof rx ry rz
   end
   begin
      id 29
      name RightFoot
      direction 0.000000 -0.258819 0.965926
      length 5.165550
      axis 15.0 0.0 0.0 xyz
      dof rx ry rz
   end
   begin
      id 30
      name RightToeBase
      direction 0.000000 0.000000 1.000000
      length 2.952750
      axis 0.0 0.0 0.0 xyz
      dof rx ry rz
   end
:hierarchy
   begin
      root Spine_dum LeftUpLeg_dum RightUpLeg_dum
      Spine_dum Spine
      LeftUpLeg_dum LeftUpLeg
      RightUpLeg_dum RightUpLeg
      Spine Spine_dum1 Spine_dum2 Spine_dum3
      Spine_dum1 Head
      Spine_dum2 LeftShoulder
      Spine_dum3 RightShoulder
      LeftShoulder LeftArm
      LeftArm LeftForeArm
      LeftForeArm LeftHand
      LeftHand LeftHand_dum1 LeftHand_dum2
      LeftHand_dum1 LeftHandThumb1
      RightShoulder RightArm
      RightArm RightForeArm
      RightForeArm RightHand
      RightHand RightHand_dum1 RightHand_dum2
      RightHand_dum1 RightHandThumb1
      LeftUpLeg LeftLeg
      LeftLeg LeftFoot
      LeftFoot LeftToeBase
      RightUpLeg RightLeg
      RightLeg RightFoot
      RightFoot RightToeBase
   end

# File created by Blade
# Date/Time:  Tue Jan 27 18:09:10 2015
# Frame Rate: 120.000 fps
#------------------------------------------------------
:FULLY-SPECIFIED
:DEGREES
770
root -1.528890 31.817787 -6.158379 5.848400 25.647506 5.723122
Spine -6.971575 2.238298 -3.832140
Head -6.963074 -14.491503 12.321672
LeftShoulder -7.672446 16.094703 5.872477
LeftArm 26.657478 40.521293 -69.996438
LeftForeArm -3.860743 0.000000 13.812430
LeftHand -11.121950 -0.000000 -4.017327
LeftHandThumb1 -26.253704 0.000000 33.147579
RightShoulder 3.592073 42.272001 -42.655216
RightArm 66.309461 -23.538388 60.055228
RightForeArm 7.858444 -0.000000 97.126525
RightHand -9.927686 -0.000000 17.015045
RightHandThumb1 -24.326973 -0.000000 -32.862282
LeftUpLeg -2.472260 -11.706399 -1.148185
LeftLeg 2.064237 -0.000000 -0.000000
LeftFoot -13.623506 9.788299 -23.881846
LeftToeBase 8.610258 -0.000000 -0.000000
RightUpLeg 6.105676 -15.365148 -4.173132
RightLeg -3.456053 -0.000000 0.000000
RightFoot -19.236154 -21.031227 12.112793
RightToeBase 5.613637 -0.000000 -0.000000
771
root -1.528655 31.817815 -6.163259 5.836351 25.593683 5.711261
Spine -6.968354 2.126171 -3.745682
Head -6.915005 -14.315921 12.033320
LeftShoulder -7.737300 16.052883 5.799315
LeftArm 26.582620 40.554867 -69.985826
LeftForeArm -3.896326 0.000000 13.827279
LeftHand -11.106719 -0.000000 -4.094065
LeftHandThumb1 -26.253704 0.000000 33.147579
RightShoulder 3.867806 42.473624 -42.451872
RightArm 65.457471 -23.044628 61.361840
RightForeArm 8.258380 0.000000 97.242224
RightHand -9.810146 -0.000000 16.774909
RightHandThumb1 -24.326973 -0.000000 -32.862282
LeftUpLeg -2.470513 -11.667700 -1.150193
LeftLeg 2.072225 -0.000000 -0.000000
LeftFoot -13.609057 9.786438 -23.828715
LeftToeBase 8.517815 -0.000000 -0.000000
RightUpLeg 6.098077 -15.355649 -4.171925
RightLeg -3.465696 -0.000000 0.000000
RightFoot -19.219365 -20.995149 12.107239
RightToeBase 5.649399 -0.000000 -0.000000
772
root -1.531786 31.818647 -6.171425 5.839198 25.564463 5.708856
Spine -7.015605 2.073809 -3.708555
Head -6.727223 -14.246830 11.804455
LeftShoulder -7.669107 16.103819 5.781049
LeftArm 26.614217 40.521041 -69.950846
LeftForeArm -3.891271 -0.000000 13.781570
LeftHand -11.122405 -0.000000 -4.165757
LeftHandThumb1 -26.253704 0.000000 33.147579
RightShoulder 4.187047 42.522738 -42.175435
RightArm 64.667031 -22.445833 62.558696
RightForeArm 8.668804 -0.000000 97.385269
RightHand -9.836564 0.000000 16.577035
RightHandThumb1 -24.326973 -0.000000 -32.862282
LeftUpLeg -2.492976 -11.663575 -1.144763
LeftLeg 2.077739 -0.000000 -0.000000
LeftFoot -13.633238 9.803845 -23.906746
LeftToeBase 8.637496 -0.000000 -0.000000
RightUpLeg 6.068987 -15.347483 -4.168235
RightLeg -3.457649 -0.000000 0.000000
RightFoot -19.206658 -20.974218 12.086920
RightToeBase 5.616560 -0.000000 -0.000000
773
root -1.531231 31.819979 -6.177627 5.844959 25.530591 5.704615
Spine -7.068732 1.977782 -3.638823
Head -6.552872 -14.124532 11.525857
LeftShoulder -7.681446 16.162138 5.713261
LeftArm 26.661206 40.538017 -69.864859
LeftForeArm -3.940938 -0.000000 13.755639
LeftHand -11.106530 -0.000000 -4.213071
LeftHandThumb1 -26.253704 0.000000 33.147579
RightShoulder 4.554251 42.616352 -41.907977
RightArm 63.837517 -21.799303 63.860546
RightForeArm 9.037936 -0.000000 97.547888
RightHand -9.791096 -0.000000 16.361390
RightHandThumb1 -24.326973 -0.000000 -32.862282
LeftUpLeg -2.507704 -11.632251 -1.148514
LeftLeg 2.076186 -0.000000 -0.000000
LeftFoot -13.618028 9.831534 -23.889099
LeftToeBase 8.599610 -0.000000 -0.000000
RightUpLeg 6.050458 -15.337404 -4.168759
RightLeg -3.472186 -0.000000 0.000000
RightFoot -19.162204 -20.971236 12.056698
RightToeBase 5.587648 -0.000000 -0.000000
